<?xml version="1.0" encoding="utf-8"?>
<!-- Generator: Adobe Illustrator 27.1.1, SVG Export Plug-In . SVG Version: 6.00 Build 0)  -->
<svg version="1.1" id="Layer_1" xmlns="http://www.w3.org/2000/svg" xmlns:xlink="http://www.w3.org/1999/xlink" x="0px" y="0px"
	 viewBox="0 0 1000 1000" style="enable-background:new 0 0 1000 1000;" xml:space="preserve">
<style type="text/css">
	.st0{opacity:0.69;}
	.st1{fill:#BCBCBC;}
</style>
<g class="st0">
	<path class="st1" d="M477.2,278.29c-0.56-14.19-0.19-30.86,2.96-47.08c6.23-31.99,12.04-64.33,26.91-93.71
		c7.53-14.87,15.18-29.99,25.72-43.11c19.67-24.51,42.23-45.45,72.4-56.69c32.53-12.12,64.7-11.63,96.61,2.13
		c21.27,9.17,39.17,22.76,54.75,39.95c33.82,37.33,51.28,81.96,61.26,130.56c5.16,25.11,7.77,50.26,7.44,75.74
		c-0.2,15.85-0.46,31.89-3.81,47.4c-6.46,29.87-11.9,60.17-25.39,87.97c-13.55,27.92-30.15,53.96-53.87,74.38
		c-27.49,23.67-59.15,37.45-96.19,36.09c-20.45-0.75-39.78-6.27-57.56-16.21c-16.04-8.97-30.3-20.28-42.8-34.1
		c-13.03-14.41-22.97-30.58-32.58-47.31c-16.69-29.05-23.63-60.94-30.48-93.14C478.3,321.1,477.12,301,477.2,278.29z M528.03,230.85
		c36.36-17.61,65.31-3.87,79.03,11.85c16.41,18.8,18.54,46.45,5.92,67.57c-8.74,14.61-22.05,22.52-37.91,26.69
		c-16.28,4.28-31.67,0.28-47.26-6.96c3.06,17.97,7.08,34.44,13.05,50.69c9.58,26.09,21.54,50.44,40.17,71.39
		c10.45,11.75,22.54,21.26,36.59,27.73c24.78,11.41,49.41,9.83,73.43-3.24c21.14-11.5,35.64-29.69,48.65-49
		c11.93-17.71,18.94-38.03,25.83-58.05c8.19-23.79,11.4-48.83,12.18-73.9c1.27-40.91-2.73-81.03-17.93-119.77
		c-10.69-27.25-24.2-52.3-44.76-73.2c-8.5-8.65-18.43-15.69-29.33-20.94c-9.06-4.36-18.75-7.08-28.97-7.79
		c-28.88-2.01-51.65,10.83-71.02,30.29c-11.45,11.51-21.67,24.46-28.9,39.25C543.32,170.99,531.92,199.27,528.03,230.85z"/>
	<path class="st1" d="M350.86,28.96c21.76,1.05,44.33,6.93,65.75,18.24c15.16,8.01,26.98,19.71,39.2,31.13
		c4.74,4.43,6.52,8.99,2.2,15.12c-7.23,10.26-12.62,21.56-17.02,33.32c-0.53,1.43-0.9,3.37-2.68,3.57
		c-1.87,0.21-2.31-1.77-3.09-3.05c-17.71-29.29-43.59-47.03-77.14-52.53c-24.9-4.08-45.78,5.9-64.61,21.63
		c-13.26,11.08-22.92,24.76-32.34,39.02c-15.1,22.84-22.91,48.28-29.16,74.47c-1.29,5.4-3.11,10.67-4.55,16.04
		c-0.38,1.42-1.09,3.25,0.54,4.28c1.22,0.77,2.58-0.17,3.77-0.78c17.68-9,35.59-9.04,53.8-1.64c5.27,2.14,10.15,4.91,14.18,8.77
		c18.86,18.09,27.35,34.02,18.72,60.66c-11.2,34.58-49.17,50.53-82.97,36.17c-1.44-0.61-2.83-1.34-4.23-2.03
		c-3.33-1.65-4.94-0.49-3.94,3c8.61,30.17,13.85,61.58,32.19,88.22c3.55,5.15,6.39,10.8,10.05,15.86
		c16.82,23.27,37.4,41.38,66.46,47.63c13.15,2.83,25.96,0.6,38.29-3.55c18.01-6.07,34.1-15.4,46.87-30.05
		c5.3-6.08,10.7-11.93,14.34-19.21c1.85-3.69,3.72-3.58,5.19,0.26c4.87,12.78,10.88,24.99,18.48,36.35
		c2.85,4.26,1.45,7.35-1.53,10.68c-24.62,27.49-54.76,44.96-91.52,50c-38.68,5.3-72.16-6.79-102.01-31.05
		c-27-21.94-45.25-49.92-59.66-81.28c-17.6-38.31-24.58-78.59-26.73-120.19c-2.51-48.4,3.37-95.67,20.5-141
		c7.07-18.7,15.58-37.21,27.38-53.61c14.41-20.03,30.68-38.5,51.7-51.96C298.95,37.56,322.61,29.46,350.86,28.96z"/>
</g>
</svg>
